<svg xmlns="http://www.w3.org/2000/svg" xmlns:xlink="http://www.w3.org/1999/xlink" xmlns:jfreesvg="http://www.jfree.org/jfreesvg/svg" width="500" height="500" text-rendering="auto" shape-rendering="auto">
<defs></defs>
<rect x="10" y="10" width="252" height="350" style="stroke-width: 1.0;stroke: rgb(0,0,0);stroke-opacity: 1.0;stroke-linecap: square;; fill: none" transform="matrix(1,0,0,1,0,0)" /><g transform="matrix(1,0,0,1,0,0)"><text x="101" y="30" style="fill: rgb(0,0,0); fill-opacity: 1.0; font-family: sans-serif; font-size: 12px;" >Java class</text></g><g transform="matrix(1,0,0,1,0,0)"><text x="86" y="50" style="fill: rgb(0,0,0); fill-opacity: 1.0; font-family: sans-serif; font-size: 12px; font-weight: bold;" >TestClassReader</text></g><g transform="matrix(1,0,0,1,0,0)"><text x="110" y="70" style="fill: rgb(0,0,0); fill-opacity: 1.0; font-family: sans-serif; font-size: 12px;" >default</text></g><line x1="10" y1="90" x2="262" y2="90" style="stroke-width: 1.0;stroke: rgb(0,0,0);stroke-opacity: 1.0;stroke-linecap: square;" transform="matrix(1,0,0,1,0,0)" /><g transform="matrix(1,0,0,1,0,0)"><text x="20" y="110" style="fill: rgb(0,0,0); fill-opacity: 1.0; font-family: sans-serif; font-size: 12px;" >attr1: double</text></g><g transform="matrix(1,0,0,1,0,0)"><text x="20" y="130" style="fill: rgb(0,0,0); fill-opacity: 1.0; font-family: sans-serif; font-size: 12px;" >attr2: int</text></g><g transform="matrix(1,0,0,1,0,0)"><text x="20" y="150" style="fill: rgb(0,0,0); fill-opacity: 1.0; font-family: sans-serif; font-size: 12px;" >attr3: String</text></g><line x1="10" y1="170" x2="262" y2="170" style="stroke-width: 1.0;stroke: rgb(0,0,0);stroke-opacity: 1.0;stroke-linecap: square;" transform="matrix(1,0,0,1,0,0)" /><g transform="matrix(1,0,0,1,0,0)"><text x="20" y="190" style="fill: rgb(0,0,0); fill-opacity: 1.0; font-family: sans-serif; font-size: 12px;" >TestClassReader(double, int, String)</text></g><g transform="matrix(1,0,0,1,0,0)"><text x="20" y="210" style="fill: rgb(0,0,0); fill-opacity: 1.0; font-family: sans-serif; font-size: 12px;" >TestClassReader()</text></g><g transform="matrix(1,0,0,1,0,0)"><text x="20" y="230" style="fill: rgb(0,0,0); fill-opacity: 1.0; font-family: sans-serif; font-size: 12px;" >getAttr1() : double</text></g><g transform="matrix(1,0,0,1,0,0)"><text x="20" y="250" style="fill: rgb(0,0,0); fill-opacity: 1.0; font-family: sans-serif; font-size: 12px;" >getAttr3() : String</text></g><g transform="matrix(1,0,0,1,0,0)"><text x="20" y="270" style="fill: rgb(0,0,0); fill-opacity: 1.0; font-family: sans-serif; font-size: 12px;" >setAttr3(String) : void</text></g><g transform="matrix(1,0,0,1,0,0)"><text x="20" y="290" style="fill: rgb(0,0,0); fill-opacity: 1.0; font-family: sans-serif; font-size: 12px;" >setAttr1(double) : void</text></g><g transform="matrix(1,0,0,1,0,0)"><text x="20" y="310" style="fill: rgb(0,0,0); fill-opacity: 1.0; font-family: sans-serif; font-size: 12px;" >getAttr2() : int</text></g><g transform="matrix(1,0,0,1,0,0)"><text x="20" y="330" style="fill: rgb(0,0,0); fill-opacity: 1.0; font-family: sans-serif; font-size: 12px;" >setAttr2(int) : void</text></g></svg>